<svg width="2183" height="2500" viewBox="0 0 2183 2500" fill="none" xmlns="http://www.w3.org/2000/svg">
<path d="M727.95 2500C824.445 2500 916.987 2456.1 985.219 2377.96C1053.45 2299.82 1091.78 2193.84 1091.78 2083.33V1666.67H727.95C631.456 1666.67 538.913 1710.57 470.681 1788.71C402.45 1866.85 364.117 1972.83 364.117 2083.33C364.117 2193.84 402.45 2299.82 470.681 2377.96C538.913 2456.1 631.456 2500 727.95 2500Z" fill="#0ACF83"/>
<path d="M364.117 1250C364.117 1139.49 402.45 1033.51 470.681 955.372C538.913 877.232 631.456 833.333 727.95 833.333H1091.78V1666.67H727.95C631.456 1666.67 538.913 1622.77 470.681 1544.63C402.45 1466.49 364.117 1360.51 364.117 1250Z" fill="#A259FF"/>
<path d="M364.117 416.667C364.117 306.216 402.41 200.285 470.581 122.154C538.751 44.0231 631.221 0.0863505 727.666 6.10352e-05L1091.5 6.10352e-05V833.333H727.95C631.456 833.333 538.913 789.435 470.681 711.295C402.45 633.154 364.117 527.174 364.117 416.667Z" fill="#F24E1E"/>
<path d="M1091.78 6.10352e-05H1455.62C1552.11 6.10352e-05 1644.65 43.8987 1712.89 122.039C1781.12 200.179 1819.45 306.16 1819.45 416.667C1819.45 527.174 1781.12 633.154 1712.89 711.295C1644.65 789.435 1552.11 833.333 1455.62 833.333H1091.78V6.10352e-05Z" fill="#FF7262"/>
<path d="M1819.45 1250C1819.45 1360.51 1781.12 1466.49 1712.89 1544.63C1644.65 1622.77 1552.11 1666.67 1455.62 1666.67C1359.12 1666.67 1266.58 1622.77 1198.35 1544.63C1130.12 1466.49 1091.78 1360.51 1091.78 1250C1091.78 1139.49 1130.12 1033.51 1198.35 955.372C1266.58 877.232 1359.12 833.333 1455.62 833.333C1552.11 833.333 1644.65 877.232 1712.89 955.372C1781.12 1033.51 1819.45 1139.49 1819.45 1250Z" fill="#1ABCFE"/>
</svg>
